# xmcd CD database file generated by OrangeCD 5.2
#
# Track frame offsets:
#	150
#	19612
#	38475
#	55362
#	68200
#	81475
#	96975
#	112775
#	125825
#	141387
#	151500
#	168137
#	183762
#	204062
#	222750
#	231212
#	246250
#	267012
#	284875
#	296450
#	312512
#
# Disc length: 4447 seconds
#
# Revision: 2
# Processed by: cddbd v1.5.1PL0 Copyright (c) Steve Scherf et al.
# Submitted via: OrangeCD 5.2
#
DISCID=2a115d15
DTITLE=Johnny Cash - Heroes and Friends Volume 4
DYEAR=1900
DGENRE=Country
TTITLE0=Johnny Cash and Tom Astor - Johnny Cash Medley
TTITLE1=Johnny Cash and Michael Martin Murphy - Tennessee Stud
TTITLE2=Johnny Cash and Earl Scruggs - My Ship Will Sail
TTITLE3=I Will Dance With You
TTITLE4=Johnny Cash and June Carter Cash - Help Me Make It Through The Night
TTITLE5=Johnny Cash and Marty Stuart - One More Ride
TTITLE6=Help Him, Jesus
TTITLE7=Johnny Cash and Sandy Kelly - Ring Of Fire
TTITLE8=Johnny Cash and Razzy Bailey - The Long Black Veil
TTITLE9=Johnny Cash and Oscar The Grouch - Nasty Dan
TTITLE10=Time Of The Preacher
TTITLE11=Johnny Cash and Cindy Cash - Little Mocking Bird
TTITLE12=Johnny Cash and Waylon Jennings - Be Careful Who You Love (Arthur's Song
TTITLE12=)
TTITLE13=Johnny Cash, Mark O'Connor, Charlie Daniels, Travis Tritt and Marty Stua
TTITLE13=rt - The Devil Comes Back To Georgia
TTITLE14=Way Worn Traveler
TTITLE15=Johnny Cash and Carlene Carter - The Winding Stream
TTITLE16=Life's Railway To Heaven
TTITLE17=Johnny Cash and Jimmy Tittle - Waiting For A Southern Train
TTITLE18=Johnny Cash, Joan Baez and The Earl Scruggs Revue - Gospel Ship
TTITLE19=Johnny Cash and Joanne Cash Yates - When He Comes
TTITLE20=Johnny Cash and U2 - The Wanderer
EXTD=
EXTT0=with Tom Astor
EXTT1=with Michael Martin Murphy
EXTT2=with Earl Scruggs
EXTT3=
EXTT4=
EXTT5=
EXTT6=
EXTT7=
EXTT8=
EXTT9=
EXTT10=
EXTT11=
EXTT12=
EXTT13=
EXTT14=
EXTT15=
EXTT16=
EXTT17=
EXTT18=
EXTT19=
EXTT20=
PLAYORDER=
